<?xml version="1.0" encoding="UTF-8"?>
<svg version="1.1" xmlns="http://www.w3.org/2000/svg" width="512" height="512">
<path d="M0 0 C1.45058807 0.00273422 1.45058807 0.00273422 2.93048096 0.00552368 C17.243695 0.05090755 31.23971879 0.47323058 45.3125 3.3125 C46.21436035 3.48942383 47.1162207 3.66634766 48.04541016 3.84863281 C54.51849895 5.14751287 60.92138488 6.65907126 67.3125 8.3125 C68.13250488 8.52213379 68.95250977 8.73176758 69.79736328 8.94775391 C110.73432636 19.65383706 148.00708888 42.03876245 178.3125 71.3125 C178.93334473 71.91143066 179.55418945 72.51036133 180.19384766 73.12744141 C188.09161802 80.78798212 195.67483652 88.51111599 202.3125 97.3125 C202.79928223 97.95525879 203.28606445 98.59801758 203.78759766 99.26025391 C215.40302889 114.68749484 225.0822624 130.85257673 233.3125 148.3125 C233.6125293 148.94446289 233.91255859 149.57642578 234.22167969 150.22753906 C262.11266068 209.56811039 264.09537943 280.02694914 242.88525391 341.72387695 C226.62248116 386.71433106 197.78077368 429.3012155 159.3125 458.3125 C158.66974121 458.79928223 158.02698242 459.28606445 157.36474609 459.78759766 C141.95948304 471.38648137 125.79392102 481.17399229 108.3125 489.3125 C107.1376001 489.85970703 107.1376001 489.85970703 105.93896484 490.41796875 C72.57853093 505.75369283 37.29198184 512.7679832 0.6875 512.625 C-0.28205627 512.62317719 -1.25161255 512.62135437 -2.25054932 512.61947632 C-16.58229259 512.57412737 -30.59645512 512.15545422 -44.6875 509.3125 C-45.58936035 509.13557617 -46.4912207 508.95865234 -47.42041016 508.77636719 C-53.89349895 507.47748713 -60.29638488 505.96592874 -66.6875 504.3125 C-67.50750488 504.10286621 -68.32750977 503.89323242 -69.17236328 503.67724609 C-120.56141499 490.23766925 -169.45912045 457.68145467 -201.6875 415.3125 C-202.09887207 414.78285645 -202.51024414 414.25321289 -202.93408203 413.70751953 C-211.12790929 403.13102552 -218.02269206 391.89976207 -224.6875 380.3125 C-225.06503418 379.66877441 -225.44256836 379.02504883 -225.83154297 378.36181641 C-240.49579594 353.25556837 -249.47538248 323.98869265 -253.6875 295.3125 C-253.86482666 294.10787109 -254.04215332 292.90324219 -254.22485352 291.66210938 C-255.82382494 280.0048269 -256.04590972 268.44063934 -256 256.6875 C-255.99726578 255.23316559 -255.99726578 255.23316559 -255.99447632 253.74945068 C-255.94912737 239.41770741 -255.53045422 225.40354488 -252.6875 211.3125 C-252.51057617 210.41063965 -252.33365234 209.5087793 -252.15136719 208.57958984 C-250.85248713 202.10650105 -249.34092874 195.70361512 -247.6875 189.3125 C-247.47786621 188.49249512 -247.26823242 187.67249023 -247.05224609 186.82763672 C-239.40549018 157.58865547 -225.70623297 129.54750098 -207.6875 105.3125 C-207.01702637 104.40878662 -207.01702637 104.40878662 -206.33300781 103.48681641 C-199.663652 94.58233811 -192.41333724 86.31061344 -184.6875 78.3125 C-184.08856934 77.69165527 -183.48963867 77.07081055 -182.87255859 76.43115234 C-175.20803772 68.52927857 -167.46506268 60.989243 -158.6875 54.3125 C-158.15785645 53.90112793 -157.62821289 53.48975586 -157.08251953 53.06591797 C-141.83614598 41.25423906 -125.19535266 31.38383563 -107.6875 23.3125 C-106.90858398 22.9505957 -106.12966797 22.58869141 -105.32714844 22.21582031 C-87.92057303 14.2119344 -70.10525296 8.50598801 -51.375 4.5 C-50.47031982 4.3050293 -49.56563965 4.11005859 -48.63354492 3.90917969 C-32.50290878 0.65753248 -16.41407027 -0.06440835 0 0 Z " fill="#FEFEFE" transform="translate(255.6875,-0.3125)"/>
<path d="M0 0 C1.16958252 0.00491455 2.33916504 0.0098291 3.54418945 0.01489258 C36.18139558 0.44975798 65.52474718 11.18037949 88.9375 34.3125 C89.7934375 35.14394531 90.649375 35.97539062 91.53125 36.83203125 C105.84255235 51.57357845 118.9375 74.38738091 118.9375 95.3125 C106.7275 95.3125 94.5175 95.3125 81.9375 95.3125 C80.2875 90.3625 78.6375 85.4125 76.9375 80.3125 C73.58849769 72.61884604 69.45210321 66.61795716 63.9375 60.3125 C63.41671875 59.69632813 62.8959375 59.08015625 62.359375 58.4453125 C48.57167922 43.334555 27.01545267 36.09847728 7.11328125 34.99609375 C-16.72543873 34.18190763 -39.39477215 41.42450808 -57.3125 57.5625 C-78.85014474 77.795151 -88.58255076 107.94342869 -90.27075195 136.88232422 C-91.17525827 171.59722893 -87.34499843 208.39177003 -63.0625 235.3125 C-62.20591797 236.12460937 -62.20591797 236.12460937 -61.33203125 236.953125 C-60.0625 238.3125 -60.0625 238.3125 -60.0625 240.3125 C-59.46179688 240.58835937 -58.86109375 240.86421875 -58.2421875 241.1484375 C-56.0625 242.3125 -56.0625 242.3125 -53.1875 244.9375 C-45.34435976 251.81922305 -34.97421153 257.18487151 -25.0625 260.3125 C-24.134375 260.61027344 -23.20625 260.90804688 -22.25 261.21484375 C1.65569547 267.57211816 26.96114748 263.53463866 48.19628906 251.34326172 C67.31440875 240.02572087 75.54240637 224.09655429 81.9375 203.3125 C94.1475 203.3125 106.3575 203.3125 118.9375 203.3125 C117.81055205 214.58197946 117.81055205 214.58197946 116.5546875 218.20703125 C116.27834473 219.01076172 116.00200195 219.81449219 115.71728516 220.64257812 C115.41870605 221.46177734 115.12012695 222.28097656 114.8125 223.125 C114.49974121 223.99447266 114.18698242 224.86394531 113.86474609 225.75976562 C109.36984928 237.91739128 103.11611273 248.23156139 94.9375 258.3125 C94.25042969 259.16585938 93.56335938 260.01921875 92.85546875 260.8984375 C74.23396087 282.80202933 46.30210515 295.74679791 17.9375 298.3125 C-1.31543539 299.55850732 -20.65741349 299.70491313 -39.0625 293.3125 C-39.74989258 293.08256348 -40.43728516 292.85262695 -41.14550781 292.61572266 C-72.37336853 281.94204893 -96.17726498 258.27559181 -111.0625 229.3125 C-113.70728972 223.76519164 -115.95817119 218.08357392 -118.0625 212.3125 C-118.45050781 211.26191406 -118.83851563 210.21132813 -119.23828125 209.12890625 C-121.51870169 202.35808264 -122.92816119 195.44605557 -124.25 188.4375 C-124.41717529 187.56456299 -124.58435059 186.69162598 -124.7565918 185.79223633 C-127.05943588 172.86854718 -127.29906034 159.72333047 -127.3125 146.625 C-127.31350708 145.93139374 -127.31451416 145.23778748 -127.31555176 144.52316284 C-127.30421463 132.89276712 -126.45682882 121.70919852 -124.0625 110.3125 C-123.91796387 109.58611328 -123.77342773 108.85972656 -123.62451172 108.11132812 C-118.00249004 80.1942238 -105.75588867 55.94885019 -86.0625 35.3125 C-85.47597656 34.65121094 -84.88945312 33.98992187 -84.28515625 33.30859375 C-63.37986902 10.6650113 -30.07402658 -0.15190014 0 0 Z " fill="#010101" transform="translate(260.0625,106.6875)"/>
</svg>
